<svg width="35" height="62" viewBox="0 0 35 62" fill="none" xmlns="http://www.w3.org/2000/svg">
<path d="M13.6111 38.3795V57.3536L16.2872 61.3521C16.8644 62.2143 18.1368 62.2143 18.7141 61.3521L21.3889 57.3536V38.3795C20.1262 38.612 18.8295 38.75 17.5 38.75C16.1705 38.75 14.8738 38.612 13.6111 38.3795ZM17.5 0C7.8349 0 0 7.80691 0 17.4375C0 27.0681 7.8349 34.875 17.5 34.875C27.1651 34.875 35 27.0681 35 17.4375C35 7.80691 27.1651 0 17.5 0ZM17.5 9.20312C12.9427 9.20312 9.23611 12.8965 9.23611 17.4375C9.23611 18.2391 8.58229 18.8906 7.77778 18.8906C6.97326 18.8906 6.31944 18.2391 6.31944 17.4375C6.31944 11.2944 11.3361 6.29688 17.5 6.29688C18.3045 6.29688 18.9583 6.94836 18.9583 7.75C18.9583 8.55164 18.3045 9.20312 17.5 9.20312Z" fill="#1B2437"/>
</svg>
